<svg xmlns="http://www.w3.org/2000/svg" xmlns:xlink="http://www.w3.org/1999/xlink" viewBox="0 0 611.42 589.4"><defs><linearGradient id="a" x1="690.87" y1="73.48" x2="704.51" y2="1010.24" gradientUnits="userSpaceOnUse"><stop offset="0.26" stop-color="#6fcbdc"/><stop offset="0.35" stop-color="#6ac6da"/><stop offset="0.47" stop-color="#5bb9d5"/><stop offset="0.6" stop-color="#43a3cc"/><stop offset="0.73" stop-color="#2285c0"/><stop offset="0.8" stop-color="#0d72b9"/></linearGradient><linearGradient id="b" x1="373.88" y1="83.72" x2="387.35" y2="1008.91" gradientUnits="userSpaceOnUse"><stop offset="0.21" stop-color="#f5a8c3"/><stop offset="0.36" stop-color="#f2a6c2"/><stop offset="0.46" stop-color="#ea9fbf"/><stop offset="0.54" stop-color="#db94ba"/><stop offset="0.61" stop-color="#c684b3"/><stop offset="0.67" stop-color="#ac70ab"/><stop offset="0.73" stop-color="#8b57a0"/><stop offset="0.78" stop-color="#6b3e95"/></linearGradient></defs><path d="M557.51,307V776.24c1.33,4.46,14.48,46,54.42,59.14,48.9,16,89.55-26.43,93.5-30.7,32.24-34.8,27.38-79.57,26.51-86.52,4.49-.92,46.54-10.31,65.59-51.63,17.19-37.29,2.31-71.66,0-76.75,2.84-1.68,41.19-25.2,43.26-71.17,1.44-32-15.26-62.47-43.26-79.06,1-3.42,9.43-34.45-11.16-61.88-19.41-25.85-49-27.72-53-27.91-1.88-10.32-10-47.93-43.26-71.17-18.53-12.94-37.63-16.38-47.45-18.14-16.78-3-32.44-5.83-48.84,1.4C568.45,273,559.53,300.2,557.51,307Z" transform="translate(-234.12 -254)" style="fill:url(#a)"/><path d="M517,330.16c0-3.8-.29-43-27.91-59.94-20-12.3-43.79-6.43-64.19-1.4a143.4,143.4,0,0,0-38.49,15.78c-9.28,4.86-129.75,70.72-144.31,213.08C227.5,640.77,333.29,729.86,341.22,736.3c0,5.39.8,53.79,40.46,82.33,25.41,18.29,67.71,29.11,100.48,7,26.43-17.85,32.62-47.67,33.95-55.07Z" transform="translate(-234.12 -254)" style="opacity:0.8;fill:url(#b)"/><path d="M515.65,334.41c3-27.48-8.65-52.85-29.31-64.19-11.9-6.54-24.27-6.9-36.28-5.58-63.44,7-115.39,54.31-120,58.61-17.19,16-78.45,74.81-89.31,170.24C224.81,633.47,331.46,728,341.22,736.3a94.54,94.54,0,0,0,11.16,50.24,97.25,97.25,0,0,0,40.47,39.07c6.53,3.33,48.95,25,86.52,1.4,30.25-19,35.51-53.64,36.28-59.32Z" transform="translate(-234.12 -254)" style="fill:none;stroke:#231f20;stroke-miterlimit:10;stroke-width:10px"/><path d="M557.51,316.27V767.69c.39,7.48,2.43,26.73,16.75,44,19.82,23.86,48.31,26,55.82,26.51,46.85,3.45,77.8-33.79,80.93-37.68,28-34.86,22-75.59,20.93-82.33,4.49-.92,46.54-10.31,65.59-51.63,17.19-37.29,2.31-71.66,0-76.75,5-3.07,35.5-22.43,41.86-60,5.79-34.16-10.67-69.73-41.86-90.22,1-3.42,9.43-34.45-11.16-61.88-19.41-25.85-49-27.72-53-27.91-2.42-13.69-9.78-42.78-34.89-64.19-37.34-31.84-102.24-36.72-128.38-5.58C561,290.83,558,304.33,557.51,316.27Z" transform="translate(-234.12 -254)" style="fill:none;stroke:#231f20;stroke-miterlimit:10;stroke-width:10px"/><path d="M605,352.55a32.54,32.54,0,0,1,10.48-9.24,32,32,0,0,1,40.3,7.18A40.4,40.4,0,0,1,663,363.35a35.11,35.11,0,0,1,1.77,14.91,43.8,43.8,0,0,1-4,14.31,53.2,53.2,0,0,1-13,17.76l-3,2.35c-1,.77-2.11,1.39-3.17,2.09A54.25,54.25,0,0,1,628,420.4c-4.61,1.29-9.09,2.22-13.42,3.26a113.62,113.62,0,0,0-12.52,3.78,88,88,0,0,0-22.44,12.61,99.91,99.91,0,0,0-18.1,18.53l-8-6a98.26,98.26,0,0,1,45.27-34.07,119.2,119.2,0,0,1,13.7-3.84c4.54-1,9-1.82,13.21-2.87a46.49,46.49,0,0,0,11.65-4.39c.85-.55,1.76-1,2.58-1.6l2.44-1.83a52.85,52.85,0,0,0,4.43-4.3,49.11,49.11,0,0,0,7.08-10.42,36.29,36.29,0,0,0,3.75-11.77c.06-1,.19-2,.23-3s0-2-.09-3l-.37-3c-.18-1-.45-2-.74-3A33.89,33.89,0,0,0,651,354.37a27.08,27.08,0,0,0-9.5-7.66,28.93,28.93,0,0,0-12.11-2.59,37.56,37.56,0,0,0-12.61,2.18A50.11,50.11,0,0,0,605,352.55Z" transform="translate(-234.12 -254)" style="fill:#231f20"/><path d="M660.08,359.24a91.84,91.84,0,0,0,21.66,14c7.75,3.59,16,6.14,24.26,6.6a34.13,34.13,0,0,0,11.82-1.21,19.15,19.15,0,0,0,5-2.3,12.63,12.63,0,0,0,3.56-3.45,16.83,16.83,0,0,0,2.13-4.81,26,26,0,0,0,.89-5.59,45.27,45.27,0,0,0-1-11.9l9.86-1.68a54.67,54.67,0,0,1,.28,14.48,35.38,35.38,0,0,1-1.67,7.38,26.2,26.2,0,0,1-3.67,7,23.6,23.6,0,0,1-13.34,8.27,41.43,41.43,0,0,1-14.45.75,73.51,73.51,0,0,1-26.17-8.59A128.69,128.69,0,0,1,657,362.79Z" transform="translate(-234.12 -254)" style="fill:#231f20"/><path d="M561.7,567.45c22.32,1.48,53.34-.33,78.14-19.53,39.63-30.69,30.25-80.11,67-104.66,15.39-10.29,42-18.31,90.7-3.71" transform="translate(-234.12 -254)" style="fill:none;stroke:#231f20;stroke-miterlimit:10;stroke-width:10px"/><path d="M557.77,672.09c11.16,2,22.61,1.74,32.85-2.08a41.1,41.1,0,0,0,13.7-8.06,53,53,0,0,0,10-12.92c2.91-5,5.59-10.35,8.57-15.73A138.11,138.11,0,0,1,633,617.52a106.82,106.82,0,0,1,12.62-14.09,95.89,95.89,0,0,1,15-11.58,100.91,100.91,0,0,1,17-8.34c5.83-2.25,11.72-4,17.42-5.74a119.64,119.64,0,0,0,16.34-6,61.14,61.14,0,0,0,7.32-4.16,56.58,56.58,0,0,0,6.58-5.21,69.74,69.74,0,0,0,10.78-13.16,84.64,84.64,0,0,0,7.77-15.45,110.17,110.17,0,0,0,4.9-16.93c1.24-5.81,2-11.76,2.7-17.79a92.54,92.54,0,0,1,.8,18.24,89.31,89.31,0,0,1-2.88,18.28,73,73,0,0,1-18.65,32.46,63.47,63.47,0,0,1-7.37,6.22,68.52,68.52,0,0,1-8.22,5,125,125,0,0,1-17.32,7c-5.74,2-11.37,3.75-16.72,6a90.87,90.87,0,0,0-15.22,7.87,87.74,87.74,0,0,0-13.3,10.67,96.8,96.8,0,0,0-11.28,12.91,129,129,0,0,0-9.17,14.72c-2.83,5.16-5.49,10.56-8.64,16a62.49,62.49,0,0,1-12,15.47A51.8,51.8,0,0,1,594.22,680,63.61,63.61,0,0,1,575,683.6a80.31,80.31,0,0,1-19.14-1.7Z" transform="translate(-234.12 -254)" style="fill:#231f20"/><path d="M682.67,581.5a60.88,60.88,0,0,1,15.46,2.2,55.37,55.37,0,0,1,14.2,6.51c1.07.74,2.19,1.42,3.22,2.23l3,2.47c1,.89,1.89,1.82,2.82,2.73s1.73,2,2.59,2.94a45.52,45.52,0,0,1,7.77,13.58,39.3,39.3,0,0,1,2.34,15.48,43.51,43.51,0,0,1-12.19,27.41,32.85,32.85,0,0,1-2.78,2.5c-.48.39-.95.79-1.45,1.16s-1,.7-1.54,1a31.32,31.32,0,0,1-6.53,3.37c.8-.94,1.65-1.79,2.44-2.68l1.18-1.35c.4-.42.78-.87,1.15-1.33s.74-.92,1.12-1.35.7-.93,1.07-1.38c.72-.9,1.38-1.84,2-2.78A50.1,50.1,0,0,0,725,642.4,34,34,0,0,0,724.4,617a41.16,41.16,0,0,0-17-18.84,48.93,48.93,0,0,0-11.89-5,56.9,56.9,0,0,0-12.81-1.69Z" transform="translate(-234.12 -254)" style="fill:#231f20"/><path d="M605.65,728.63a35.19,35.19,0,0,1,3.32,2c.51.36,1,.68,1.59,1s1.05.65,1.55,1c1,.69,2.06,1.28,3.09,1.9l1.51,1c.51.31,1,.58,1.55.87a48.66,48.66,0,0,0,12.89,5.55,42.69,42.69,0,0,0,27-1.71,35.54,35.54,0,0,0,18.74-18.62c.52-1,.87-2.12,1.32-3.18s.73-2.2,1-3.31.6-2.25.76-3.4.44-2.29.6-3.45l.29-1.74c.06-.59.15-1.18.24-1.77.2-1.18.29-2.37.47-3.58s.26-2.43.48-3.69.29-2.52.56-3.86a19.93,19.93,0,0,1,1,1.72,17.3,17.3,0,0,1,.88,1.78,28.61,28.61,0,0,1,1.26,3.76,27,27,0,0,1,.72,3.9,23.91,23.91,0,0,1,.21,4,39.34,39.34,0,0,1-1,7.93c-.29,1.31-.66,2.6-1,3.9s-.82,2.56-1.36,3.8a35,35,0,0,1-1.7,3.68c-.31.6-.61,1.22-1,1.8l-1.07,1.74-.54.87-.6.83-1.2,1.65c-.88,1.06-1.76,2.11-2.71,3.1a40.16,40.16,0,0,1-3,2.81L670,742.13c-.55.42-1.11.82-1.69,1.2a28.72,28.72,0,0,1-3.55,2.09l-1.84.93c-.31.15-.61.32-.92.45l-1,.38a46.62,46.62,0,0,1-31.71.81,50.68,50.68,0,0,1-14.11-7.14c-.52-.4-1.06-.78-1.57-1.2l-1.43-1.35a22.1,22.1,0,0,1-2.66-2.9,25.38,25.38,0,0,1-2.24-3.22A32.14,32.14,0,0,1,605.65,728.63Z" transform="translate(-234.12 -254)" style="fill:#231f20"/><path d="M601.46,831.63c4.15-.56,33.56-5.06,50.94-32.53,16.12-25.47,9.86-51.63,8.72-56.05" transform="translate(-234.12 -254)" style="fill:none;stroke:#231f20;stroke-miterlimit:10;stroke-width:10px"/><path d="M461.63,835q-.21-162.36-.4-324.73c-.63-5.18-3.4-22.77-18.15-34.89-18.92-15.55-50.07-15.9-69.77,2.79-20.7,19.64-21.21,53.15-4.19,72.57,14.48,16.51,36.33,16.77,40.47,16.74H517" transform="translate(-234.12 -254)" style="fill:none;stroke:#231f20;stroke-miterlimit:10;stroke-width:10px"/><path d="M299.84,427a5.36,5.36,0,0,1-1.45-6.2,4.64,4.64,0,0,1,.29-.59l.09-.14,0-.07.09-.14.35-.56.69-1.09,1.39-2.15c.94-1.41,1.87-2.82,2.84-4.21,1.9-2.79,3.87-5.52,5.86-8.24q6-8.13,12.41-15.9c2.12-2.61,4.33-5.15,6.51-7.7s4.44-5.06,6.74-7.51c4.52-5,9.28-9.74,14.09-14.44a369.32,369.32,0,0,1,30.46-26.4c5.33-4.09,10.74-8.08,16.29-11.87q4.17-2.85,8.42-5.58c1.43-.9,2.85-1.8,4.3-2.68l2.19-1.31,1.1-.65.56-.32.14-.08h0a2.92,2.92,0,0,0-.34.23,4,4,0,0,0-.78.8,4.14,4.14,0,0,0-.78,3,3.93,3.93,0,0,0,.9,2.09,4.26,4.26,0,0,0,1.57,1.54,4.19,4.19,0,0,0,2.71.44,3.56,3.56,0,0,0,1-.32l.19-.09-.12.07-.51.3-1,.62-2.06,1.27c-1.38.85-2.75,1.75-4.11,2.63-2.72,1.8-5.43,3.63-8.1,5.52q-8,5.66-15.71,11.78a361.29,361.29,0,0,0-29.43,26,376.31,376.31,0,0,0-26.46,29q-6.22,7.62-12,15.52c-2,2.63-3.83,5.3-5.67,8q-1.4,2-2.73,4l-1.32,2-.65,1-.32.51-.08.13-.05.08a5.92,5.92,0,0,1-.83,1,5.59,5.59,0,0,1-1.56,1.05,5.43,5.43,0,0,1-2.13.45A5.49,5.49,0,0,1,299.84,427Zm6-8a4.63,4.63,0,0,0-2.75-1.13,4.78,4.78,0,0,0-2,.32,4.58,4.58,0,0,0-1.47.92,4.17,4.17,0,0,0-.75.9l0,0,.09-.14.34-.54.69-1.08,1.4-2.13c.93-1.42,1.88-2.81,2.84-4.2,1.92-2.78,3.86-5.53,5.87-8.23q6-8.13,12.4-15.91a362,362,0,0,1,57.74-56.11c5.3-4.13,10.75-8.07,16.3-11.88,2.77-1.9,5.59-3.75,8.43-5.57,1.43-.9,2.85-1.8,4.31-2.67l2.19-1.31,1.12-.65.57-.33.14-.08.32-.17a5.2,5.2,0,0,1,1.12-.39,4.73,4.73,0,0,1,3,.29,4.79,4.79,0,0,1,1.83,1.39,5.12,5.12,0,0,1,.63,2.26,4.77,4.77,0,0,1-1,3.12,4.64,4.64,0,0,1-.92.88l-.4.27-.09.05-.13.08-.51.31-1,.62L414,319.14c-1.38.86-2.74,1.76-4.11,2.65-2.72,1.79-5.42,3.64-8.09,5.52C396.4,331.08,391.17,335,386,339.1a361.36,361.36,0,0,0-29.47,25.95,368.48,368.48,0,0,0-26.49,29q-6.22,7.59-12,15.51c-1.92,2.64-3.82,5.3-5.65,8-.93,1.34-1.83,2.7-2.72,4.05l-1.31,2-.64,1-.3.5-.08.12,0,.07s-.07.12,0-.08a3.6,3.6,0,0,0,.26-.52,4.67,4.67,0,0,0,.07-3.33A4.62,4.62,0,0,0,305.84,419Z" transform="translate(-234.12 -254)" style="fill:#fff"/><path d="M351.68,350.46" transform="translate(-234.12 -254)" style="fill:none;stroke:#fff;stroke-miterlimit:10"/><path d="M800.32,499.07a50.26,50.26,0,0,1-19.54,58.61" transform="translate(-234.12 -254)" style="fill:none;stroke:#fff;stroke-miterlimit:10;stroke-width:10px"/><circle cx="566.2" cy="245.08" r="1.4" style="fill:none;stroke:#fff;stroke-miterlimit:10;stroke-width:8px"/><circle cx="546.66" cy="303.69" r="1.4" style="fill:none;stroke:#fff;stroke-miterlimit:10;stroke-width:8px"/></svg>